<?xml version="1.0" encoding="UTF-8" standalone="no"?>
<svg width="543px" height="252px" viewBox="0 0 543 252" version="1.1" xmlns="http://www.w3.org/2000/svg" xmlns:xlink="http://www.w3.org/1999/xlink">
    <!-- Generator: Sketch 3.8.3 (29802) - http://www.bohemiancoding.com/sketch -->
    <title>moip-color</title>
    <desc>Created with Sketch.</desc>
    <defs></defs>
    <g id="Page-1" stroke="none" stroke-width="1" fill="none" fill-rule="evenodd">
        <g id="moip-color" transform="translate(0.000000, -1.000000)">
            <path d="M481.01,2.57 C464.01,11.89 462.86,72.93 480.86,80.16 C497.67,86.91 541.99,59.49 542.1,41.36 C542.21,23.23 496.88,-6.17 481.01,2.57 L481.01,2.57 Z M491.44,55.96 C490.647331,56.7612434 489.567082,57.2121051 488.44,57.2121051 C487.835013,57.2121051 487.24352,57.0822007 486.702754,56.8379319 C486.236081,56.6271311 485.11,55.62 485.11,55.62 C484.308757,54.8273313 483.857895,53.7470824 483.857895,52.62 C483.857895,51.4929176 484.308757,50.4126687 485.11,49.62 L490.7,44.03 C491.498761,43.2360057 491.947903,42.1562533 491.947903,41.03 C491.947903,39.9037467 491.498761,38.8239943 490.7,38.03 L485.11,32.44 C484.308757,31.6473313 483.857895,30.5670824 483.857895,29.44 C483.857895,28.3129176 484.308757,27.2326687 485.11,26.44 L485.44,26.1 C486.232669,25.2987566 487.312918,24.8478949 488.44,24.8478949 C489.567082,24.8478949 490.647331,25.2987566 491.44,26.1 L503.32,37.98 C504.121243,38.7726687 504.572105,39.8529176 504.572105,40.98 C504.572105,42.1070824 504.121243,43.1873313 503.32,43.98 L491.44,55.96 Z M511.47,55.96 C510.677331,56.7612434 509.597082,57.2121051 508.47,57.2121051 C507.342918,57.2121051 506.262669,56.7612434 505.47,55.96 L505.14,55.62 C504.338757,54.8273313 503.887895,53.7470824 503.887895,52.62 C503.887895,51.4929176 504.338757,50.4126687 505.14,49.62 L510.73,44.03 C511.528761,43.2360057 511.977903,42.1562533 511.977903,41.03 C511.977903,39.9037467 511.528761,38.8239943 510.73,38.03 L505.14,32.44 C504.338757,31.6473313 503.887895,30.5670824 503.887895,29.44 C503.887895,28.3129176 504.168306,27.3593701 505.14,26.44 C506.111694,25.5206299 507.342918,24.8478949 508.47,24.8478949 C509.597082,24.8478949 510.677331,25.2987566 511.47,26.1 L523.35,37.98 C524.182583,38.7761371 524.653512,39.8780326 524.653512,41.03 C524.653512,42.1819674 524.182583,43.2838629 523.35,44.08 L511.47,55.96 Z" id="Shape" fill="#009BDE"></path>
            <path d="M459.04,80.09 C453.456129,74.3489005 446.777849,69.7856354 439.4,66.67 C431.69383,63.4026545 423.399997,61.7486526 415.03,61.81 C398.539924,61.663704 382.707521,68.2683667 371.21,80.09 C365.747727,85.8840831 361.449794,92.6738678 358.55,100.09 C355.39,107.74 354.18,116.04 354.18,124.98 L354.18,247.88 C354.18,250.993152 355.880859,252.259998 358.63,252.26 L382.38,252.26 C385.126302,252.259998 386.830002,250.929035 386.83,247.88 L386.83,185.83 C386.83,181.05 391.45,184.11 391.45,184.11 C398.947068,187.449147 407.062935,189.173173 415.27,189.17 C423.653418,189.163075 431.946789,187.441103 439.64,184.11 C447.023386,180.959282 453.701276,176.362283 459.28,170.59 C464.853421,164.786314 469.265952,157.970651 472.28,150.51 C478.590926,134.496657 478.5945,116.685874 472.29,100.67 C469.320961,93.4029954 464.605292,85.8696717 459.04,80.09 Z M443.8,138.33 C442.250083,142.183399 439.99483,145.713803 437.15,148.74 C434.346855,151.666661 431.019232,154.041112 427.34,155.74 C423.553694,157.497711 419.424278,158.392589 415.25,158.36 C411.134878,158.380238 407.06673,157.485313 403.34,155.74 C399.658846,154.044423 396.330639,151.669556 393.53,148.74 C381.328193,135.699128 381.328193,115.430872 393.53,102.39 C396.332521,99.4626181 399.66029,97.0880636 403.34,95.39 C407.065828,93.6409205 411.134084,92.7425568 415.25,92.76 C419.425105,92.7298749 423.5547,93.6282071 427.34,95.39 C431.017802,97.0913492 434.344993,99.4654916 437.15,102.39 C439.996109,105.426566 442.251288,108.967027 443.8,112.83 C447.105512,121.005176 447.105512,130.144824 443.8,138.32 L443.8,138.33 Z" id="Shape" fill="#002856"></path>
            <path d="M324.38,48.43 C332.730545,48.43 339.5,41.6605454 339.5,33.31 C339.5,24.9594546 332.730545,18.19 324.38,18.19 C316.029455,18.19 309.26,24.9594546 309.26,33.31 C309.26,41.6605454 316.029455,48.43 324.38,48.43 Z M313.28,62.61 C310.62,62.61 309.37,65.88 309.37,68.7 L309.37,185.83 C309.37,188.287667 311.362333,190.28 313.82,190.28 L335.06,190.28 C337.517667,190.28 339.51,188.287667 339.51,185.83 L339.51,92.5 C339.5,83.11 335.26,74.08 328.64,68.72 C324.309778,65.0853824 318.923623,62.9428428 313.28,62.61 Z" id="Combined-Shape" fill="#002856"></path>
            <path d="M277.54,80.22 C272.00601,74.4401372 265.363724,69.8350914 258.01,66.68 C250.359699,63.386705 242.10881,61.718139 233.78,61.78 C217.337536,61.652454 201.573371,68.3258059 190.22,80.22 C184.643739,86.0709075 180.231919,92.9295901 177.22,100.43 C170.942429,116.584922 170.942429,134.505078 177.22,150.66 C180.230831,158.160972 184.642776,165.01985 190.22,170.87 C201.652397,182.722576 217.412357,189.417769 233.88,189.417769 C250.347643,189.417769 266.107603,182.722576 277.54,170.87 C283.097791,165.014389 287.492388,158.156102 290.49,150.66 C296.768543,134.505261 296.768543,116.584739 290.49,100.43 C287.491304,92.9344558 283.096831,86.076363 277.54,80.22 L277.54,80.22 Z M255.04,148.66 C252.377144,151.499693 249.201361,153.810279 245.68,155.47 C242.072747,157.172123 238.128556,158.040255 234.14,158.01 C230.210665,158.02691 226.327959,157.15877 222.78,155.47 C219.257032,153.812993 216.080768,151.502058 213.42,148.66 C201.766546,135.965596 201.766546,116.464404 213.42,103.77 C216.082055,100.9294 219.258022,98.6186801 222.78,96.96 C226.327396,95.2695975 230.210479,94.4013728 234.14,94.42 C238.138845,94.3835042 242.094167,95.2518291 245.71,96.96 C249.229889,98.6222057 252.405233,100.932472 255.07,103.77 C263.676577,113.197854 266.131947,126.717931 261.39,138.57 C259.915872,142.297261 257.76274,145.718536 255.04,148.66 Z" id="Shape" fill="#002856"></path>
            <path d="M121.48,62.49 C118.421528,62.0329611 115.332381,61.8123077 112.24,61.83 C106.217922,61.7762945 100.249742,62.9678879 94.71,65.33 C91.5980756,66.8582196 85.04,70.96 85.04,70.96 C82.0558917,72.9525893 78.1595874,72.9288314 75.2,70.9 C75.2,70.9 68.1118011,66.4693812 65.38,65.32 C59.8158207,62.9699379 53.8299178,61.7822858 47.79,61.83 C44.6971284,61.8196392 38.3489565,61.83 29.27,65.54 C23.7002934,67.9081719 18.6688442,71.3815388 14.48,75.75 C10.2450583,80.2028968 6.89856417,85.4228846 4.62,91.13 C2.18303627,97.2220285 0.950291376,103.728748 0.99,110.29 L0.99,184.83 C0.99,187.249007 2.9509928,189.21 5.37,189.21 L26.33,189.21 C28.7490072,189.21 30.71,187.249007 30.71,184.83 L30.71,108.83 C30.6768629,99.2589053 38.4089053,91.4731371 47.98,91.44 C57.5510947,91.4068629 65.3368629,99.1389053 65.37,108.71 L65.37,184.83 C65.3644034,187.237369 67.302725,189.198021 69.71,189.22 L89.39,189.22 C91.8090072,189.22 93.77,187.259007 93.77,184.84 L93.77,109.53 C93.77,99.53 100.83,91.28 110.84,91.28 C120.85,91.28 128.45,99.39 128.45,109.4 L128.45,184.83 C128.45,187.249007 130.410993,189.21 132.83,189.21 L153.77,189.21 C156.189007,189.21 158.15,187.249007 158.15,184.83 L158.15,110.26 C158.318032,103.72073 157.217766,97.2108248 154.91,91.09 C152.781864,85.4031393 149.580451,80.1783531 145.48,75.7 C138.959332,69.0241787 130.608566,64.4277777 121.48,62.49 Z" id="Shape" fill="#002856"></path>
        </g>
    </g>
</svg>